<svg width="585" height="165" viewBox="0 0 585 165" fill="none" xmlns="http://www.w3.org/2000/svg">
<path d="M44.736 105.576C44.928 106.664 45.088 107.784 45.216 108.936C45.344 110.152 45.408 111.144 45.408 111.912C39.456 111.976 33.952 112.168 28.896 112.488C23.84 112.872 18.048 113.512 11.52 114.408C9.792 101.992 8.544 89.512 7.776 76.968C7.072 64.36 6.848 52.488 7.104 41.352C8.128 40.968 9.088 40.712 9.984 40.584C10.88 40.392 11.904 40.296 13.056 40.296C13.44 40.296 13.856 40.328 14.304 40.392C14.752 40.392 15.2 40.424 15.648 40.488C15.264 44.136 15.008 48.072 14.88 52.296C14.752 56.52 14.72 61.704 14.784 67.848C14.912 75.72 15.2 82.76 15.648 88.968C16.16 95.176 16.864 101.448 17.76 107.784C22.304 107.08 26.912 106.536 31.584 106.152C36.256 105.768 40.64 105.576 44.736 105.576ZM44.7863 81.768C44.7863 73.448 46.6743 66.664 50.4503 61.416C54.2903 56.168 59.2183 53.544 65.2343 53.544C70.1623 53.544 74.0663 55.432 76.9463 59.208C79.8263 62.92 81.2663 67.944 81.2663 74.28C81.2663 83.56 79.4423 91.176 75.7943 97.128C72.2103 103.016 67.4423 105.96 61.4903 105.96C56.3703 105.96 52.3063 103.752 49.2983 99.336C46.2903 94.856 44.7863 89 44.7863 81.768ZM73.5863 78.312C73.5863 71.784 72.7543 66.92 71.0903 63.72C69.4263 60.52 66.8983 58.92 63.5063 58.92C60.4343 58.92 57.7463 61.032 55.4423 65.256C53.2023 69.48 52.0823 74.664 52.0823 80.808C52.0823 86.44 53.0423 91.176 54.9623 95.016C56.8823 98.792 59.4743 100.68 62.7383 100.68C65.6183 100.68 68.1463 98.504 70.3223 94.152C72.4983 89.736 73.5863 84.456 73.5863 78.312ZM122.67 72.264C122.67 76.488 122.094 82.088 120.942 89.064C119.79 96.04 118.414 102.44 116.814 108.264C115.854 108.264 114.83 108.168 113.742 107.976C112.654 107.784 111.598 107.528 110.574 107.208C110.638 106.952 110.702 106.632 110.766 106.248C110.83 105.928 110.958 105.48 111.15 104.904C111.342 103.88 111.502 103.144 111.63 102.696C111.758 102.184 111.854 101.736 111.918 101.352C110.574 102.312 109.038 103.048 107.31 103.56C105.646 104.072 103.854 104.328 101.934 104.328C97.582 104.328 94.062 103.176 91.374 100.872C88.686 98.504 87.342 95.4 87.342 91.56C87.342 87.4 89.102 84.232 92.622 82.056C96.142 79.88 101.326 78.792 108.174 78.792C109.198 78.792 110.19 78.824 111.15 78.888C112.11 78.888 113.39 78.92 114.99 78.984C115.054 78.344 115.086 77.64 115.086 76.872C115.086 76.104 115.086 74.888 115.086 73.224C115.086 68.104 114.446 64.392 113.166 62.088C111.95 59.784 109.902 58.632 107.022 58.632C104.078 58.632 101.614 59.944 99.63 62.568C97.646 65.128 96.59 68.392 96.462 72.36C94.67 72.104 93.23 71.688 92.142 71.112C91.054 70.472 90.222 69.64 89.646 68.616C90.414 64.392 92.526 60.808 95.982 57.864C99.502 54.92 103.502 53.448 107.982 53.448C112.846 53.448 116.494 55.048 118.926 58.248C121.422 61.384 122.67 66.056 122.67 72.264ZM94.926 91.752C94.926 94.12 95.694 96.008 97.23 97.416C98.766 98.76 100.782 99.432 103.278 99.432C105.07 99.432 106.766 99.176 108.366 98.664C110.03 98.088 111.566 97.256 112.974 96.168C113.486 93.544 113.87 91.208 114.126 89.16C114.446 87.112 114.67 85.064 114.798 83.016C108.206 82.632 103.246 83.176 99.918 84.648C96.59 86.056 94.926 88.424 94.926 91.752ZM164.828 127.464C164.38 127.656 163.772 127.816 163.004 127.944C162.236 128.072 161.5 128.136 160.796 128.136C160.348 128.136 159.964 128.104 159.644 128.04C159.324 127.976 158.972 127.88 158.588 127.752C158.396 126.472 158.204 123.016 158.012 117.384C157.884 111.816 157.788 106.344 157.724 100.968C156.38 103.912 154.78 106.12 152.924 107.592C151.132 109.064 149.084 109.8 146.78 109.8C142.3 109.8 138.684 107.624 135.932 103.272C133.244 98.856 131.9 93.16 131.9 86.184C131.9 76.968 133.948 69.608 138.044 64.104C142.14 58.6 147.676 55.848 154.652 55.848C155.548 55.848 156.572 55.944 157.724 56.136C158.94 56.328 160.028 56.584 160.988 56.904C161.052 56.584 161.18 55.848 161.372 54.696C161.628 53.48 161.852 52.552 162.044 51.912C162.94 51.528 163.74 51.272 164.444 51.144C165.212 50.952 166.044 50.856 166.94 50.856C167.516 50.856 168.156 50.92 168.86 51.048C169.564 51.112 170.172 51.24 170.684 51.432C168.252 59.752 166.524 70.696 165.5 84.264C164.476 97.832 164.252 112.232 164.828 127.464ZM139.196 85.704C139.196 91.272 139.996 95.752 141.596 99.144C143.196 102.472 145.276 104.136 147.836 104.136C150.332 104.136 152.348 103.144 153.884 101.16C155.42 99.112 156.732 95.848 157.82 91.368C157.884 86.952 158.14 82.152 158.588 76.968C159.036 71.784 159.58 66.856 160.22 62.184C159.324 61.8 158.396 61.544 157.436 61.416C156.476 61.224 155.356 61.128 154.076 61.128C149.66 61.128 146.076 63.304 143.324 67.656C140.572 72.008 139.196 78.024 139.196 85.704ZM191.296 105.96C186.624 105.96 183.072 103.688 180.64 99.144C178.272 94.6 177.088 87.912 177.088 79.08C177.088 74.6 177.44 70.12 178.144 65.64C178.912 61.096 179.84 57.832 180.928 55.848C181.504 55.656 182.08 55.528 182.656 55.464C183.232 55.336 183.808 55.272 184.384 55.272C184.96 55.272 185.472 55.336 185.92 55.464C186.432 55.528 186.912 55.688 187.36 55.944C186.4 59.016 185.664 62.536 185.152 66.504C184.64 70.472 184.384 74.76 184.384 79.368C184.384 85.576 185.088 90.664 186.496 94.632C187.968 98.6 189.92 100.584 192.352 100.584C195.36 100.584 197.632 98.28 199.168 93.672C200.768 89.064 201.568 82.6 201.568 74.28C201.568 71.72 201.44 69.064 201.184 66.312C200.928 63.496 200.672 61.544 200.416 60.456C201.376 60.008 202.56 59.656 203.968 59.4C205.376 59.144 206.72 59.016 208 59.016C208.32 60.488 208.544 62.248 208.672 64.296C208.864 66.344 208.96 68.424 208.96 70.536C208.96 81.992 207.456 90.76 204.448 96.84C201.504 102.92 197.12 105.96 191.296 105.96ZM227.311 33.864C228.207 33.928 228.975 34.056 229.615 34.248C230.319 34.376 230.959 34.6 231.535 34.92C230.895 36.328 230.223 38.024 229.519 40.008C228.879 41.928 228.367 43.816 227.983 45.672C227.279 45.8 226.383 45.896 225.295 45.96C224.207 45.96 223.087 45.928 221.935 45.864C221.807 45.288 221.711 44.776 221.647 44.328C221.647 43.816 221.647 43.304 221.647 42.792C221.647 41.448 221.775 40.008 222.031 38.472C222.351 36.936 222.767 35.624 223.279 34.536C223.983 34.216 224.623 34.024 225.199 33.96C225.775 33.832 226.479 33.8 227.311 33.864ZM219.919 57.192C220.687 56.744 221.455 56.424 222.223 56.232C223.055 55.976 223.919 55.848 224.815 55.848C225.327 55.848 225.775 55.88 226.159 55.944C226.607 56.008 227.055 56.104 227.503 56.232C226.223 62.952 225.327 70.824 224.815 79.848C224.303 88.872 224.303 97.288 224.815 105.096C224.367 105.352 223.791 105.544 223.087 105.672C222.383 105.8 221.679 105.864 220.975 105.864C220.655 105.864 220.335 105.832 220.015 105.768C219.759 105.768 219.439 105.736 219.055 105.672C217.967 97.544 217.487 89.16 217.615 80.52C217.807 71.816 218.575 64.04 219.919 57.192ZM244.596 88.968C244.596 92.68 244.66 96.232 244.788 99.624C244.916 102.952 245.076 105.352 245.268 106.824C244.436 107.08 243.444 107.304 242.292 107.496C241.14 107.688 240.02 107.784 238.932 107.784C238.484 100.232 238.068 91.24 237.684 80.808C237.3 70.376 237.108 61.736 237.108 54.888C237.748 54.568 238.516 54.312 239.412 54.12C240.308 53.928 241.236 53.832 242.196 53.832C243.156 53.832 243.892 53.864 244.404 53.928C244.98 53.992 245.524 54.088 246.036 54.216C245.972 54.856 245.844 56.136 245.652 58.056C245.524 59.912 245.364 62.408 245.172 65.544C247.156 62.472 249.3 60.168 251.604 58.632C253.972 57.096 256.5 56.328 259.188 56.328C261.492 56.328 263.38 56.872 264.852 57.96C266.388 59.048 267.572 60.712 268.404 62.952C270.644 58.984 273.012 56.008 275.508 54.024C278.068 52.04 280.82 51.048 283.764 51.048C287.54 51.048 290.292 52.488 292.02 55.368C293.748 58.248 294.612 62.792 294.612 69C294.612 74.632 294.068 81 292.98 88.104C291.956 95.208 290.676 101.544 289.14 107.112C287.988 107.048 286.74 106.888 285.396 106.632C284.116 106.44 283.028 106.184 282.132 105.864C283.86 98.952 285.14 92.456 285.972 86.376C286.868 80.232 287.316 74.344 287.316 68.712C287.316 64.68 286.836 61.8 285.876 60.072C284.98 58.28 283.476 57.384 281.364 57.384C279.252 57.384 277.172 58.44 275.124 60.552C273.076 62.664 271.284 65.608 269.748 69.384C269.812 70.472 269.844 71.4 269.844 72.168C269.908 72.872 269.94 73.544 269.94 74.184C269.94 78.728 269.556 83.88 268.788 89.64C268.02 95.4 267.156 100.168 266.196 103.944C265.236 103.88 264.116 103.752 262.836 103.56C261.62 103.304 260.5 103.016 259.476 102.696C260.692 96.232 261.524 90.792 261.972 86.376C262.484 81.96 262.74 77.864 262.74 74.088C262.74 69.992 262.26 67.08 261.3 65.352C260.404 63.56 258.9 62.664 256.788 62.664C254.548 62.664 252.34 63.656 250.164 65.64C248.052 67.624 246.292 70.344 244.884 73.8C244.82 76.36 244.756 78.984 244.692 81.672C244.628 84.296 244.596 86.728 244.596 88.968Z" fill="#4671C6"/>
<path d="M86.3125 139.812V142.688C86.3125 146.104 85.8854 149.167 85.0312 151.875C84.1771 154.583 82.9479 156.885 81.3438 158.781C79.7396 160.677 77.8125 162.125 75.5625 163.125C73.3333 164.125 70.8333 164.625 68.0625 164.625C65.375 164.625 62.9062 164.125 60.6562 163.125C58.4271 162.125 56.4896 160.677 54.8438 158.781C53.2188 156.885 51.9583 154.583 51.0625 151.875C50.1667 149.167 49.7188 146.104 49.7188 142.688V139.812C49.7188 136.396 50.1562 133.344 51.0312 130.656C51.9271 127.948 53.1875 125.646 54.8125 123.75C56.4375 121.833 58.3646 120.375 60.5938 119.375C62.8438 118.375 65.3125 117.875 68 117.875C70.7708 117.875 73.2708 118.375 75.5 119.375C77.75 120.375 79.6771 121.833 81.2812 123.75C82.9062 125.646 84.1458 127.948 85 130.656C85.875 133.344 86.3125 136.396 86.3125 139.812ZM80.3438 142.688V139.75C80.3438 137.042 80.0625 134.646 79.5 132.562C78.9583 130.479 78.1562 128.729 77.0938 127.312C76.0312 125.896 74.7292 124.823 73.1875 124.094C71.6667 123.365 69.9375 123 68 123C66.125 123 64.4271 123.365 62.9062 124.094C61.4062 124.823 60.1146 125.896 59.0312 127.312C57.9688 128.729 57.1458 130.479 56.5625 132.562C55.9792 134.646 55.6875 137.042 55.6875 139.75V142.688C55.6875 145.417 55.9792 147.833 56.5625 149.938C57.1458 152.021 57.9792 153.781 59.0625 155.219C60.1667 156.635 61.4688 157.708 62.9688 158.438C64.4896 159.167 66.1875 159.531 68.0625 159.531C70.0208 159.531 71.7604 159.167 73.2812 158.438C74.8021 157.708 76.0833 156.635 77.125 155.219C78.1875 153.781 78.9896 152.021 79.5312 149.938C80.0729 147.833 80.3438 145.417 80.3438 142.688ZM123.875 159.875C125.25 159.875 126.521 159.594 127.688 159.031C128.854 158.469 129.812 157.698 130.562 156.719C131.312 155.719 131.74 154.583 131.844 153.312H137.344C137.24 155.312 136.562 157.177 135.312 158.906C134.083 160.615 132.469 162 130.469 163.062C128.469 164.104 126.271 164.625 123.875 164.625C121.333 164.625 119.115 164.177 117.219 163.281C115.344 162.385 113.781 161.156 112.531 159.594C111.302 158.031 110.375 156.24 109.75 154.219C109.146 152.177 108.844 150.021 108.844 147.75V146.438C108.844 144.167 109.146 142.021 109.75 140C110.375 137.958 111.302 136.156 112.531 134.594C113.781 133.031 115.344 131.802 117.219 130.906C119.115 130.01 121.333 129.562 123.875 129.562C126.521 129.562 128.833 130.104 130.812 131.188C132.792 132.25 134.344 133.708 135.469 135.562C136.615 137.396 137.24 139.479 137.344 141.812H131.844C131.74 140.417 131.344 139.156 130.656 138.031C129.99 136.906 129.073 136.01 127.906 135.344C126.76 134.656 125.417 134.312 123.875 134.312C122.104 134.312 120.615 134.667 119.406 135.375C118.219 136.062 117.271 137 116.562 138.188C115.875 139.354 115.375 140.656 115.062 142.094C114.771 143.51 114.625 144.958 114.625 146.438V147.75C114.625 149.229 114.771 150.688 115.062 152.125C115.354 153.562 115.844 154.865 116.531 156.031C117.24 157.198 118.188 158.135 119.375 158.844C120.583 159.531 122.083 159.875 123.875 159.875ZM149.625 116V164H143.844V116H149.625ZM148.25 145.812L145.844 145.719C145.865 143.406 146.208 141.271 146.875 139.312C147.542 137.333 148.479 135.615 149.688 134.156C150.896 132.698 152.333 131.573 154 130.781C155.688 129.969 157.552 129.562 159.594 129.562C161.26 129.562 162.76 129.792 164.094 130.25C165.427 130.688 166.562 131.396 167.5 132.375C168.458 133.354 169.188 134.625 169.688 136.188C170.188 137.729 170.438 139.615 170.438 141.844V164H164.625V141.781C164.625 140.01 164.365 138.594 163.844 137.531C163.323 136.448 162.562 135.667 161.562 135.188C160.562 134.688 159.333 134.438 157.875 134.438C156.438 134.438 155.125 134.74 153.938 135.344C152.771 135.948 151.76 136.781 150.906 137.844C150.073 138.906 149.417 140.125 148.938 141.5C148.479 142.854 148.25 144.292 148.25 145.812ZM199.031 158.219V140.812C199.031 139.479 198.76 138.323 198.219 137.344C197.698 136.344 196.906 135.573 195.844 135.031C194.781 134.49 193.469 134.219 191.906 134.219C190.448 134.219 189.167 134.469 188.062 134.969C186.979 135.469 186.125 136.125 185.5 136.938C184.896 137.75 184.594 138.625 184.594 139.562H178.812C178.812 138.354 179.125 137.156 179.75 135.969C180.375 134.781 181.271 133.708 182.438 132.75C183.625 131.771 185.042 131 186.688 130.438C188.354 129.854 190.208 129.562 192.25 129.562C194.708 129.562 196.875 129.979 198.75 130.812C200.646 131.646 202.125 132.906 203.188 134.594C204.271 136.26 204.812 138.354 204.812 140.875V156.625C204.812 157.75 204.906 158.948 205.094 160.219C205.302 161.49 205.604 162.583 206 163.5V164H199.969C199.677 163.333 199.448 162.448 199.281 161.344C199.115 160.219 199.031 159.177 199.031 158.219ZM200.031 143.5L200.094 147.562H194.25C192.604 147.562 191.135 147.698 189.844 147.969C188.552 148.219 187.469 148.604 186.594 149.125C185.719 149.646 185.052 150.302 184.594 151.094C184.135 151.865 183.906 152.771 183.906 153.812C183.906 154.875 184.146 155.844 184.625 156.719C185.104 157.594 185.823 158.292 186.781 158.812C187.76 159.312 188.958 159.562 190.375 159.562C192.146 159.562 193.708 159.188 195.062 158.438C196.417 157.688 197.49 156.771 198.281 155.688C199.094 154.604 199.531 153.552 199.594 152.531L202.062 155.312C201.917 156.188 201.521 157.156 200.875 158.219C200.229 159.281 199.365 160.302 198.281 161.281C197.219 162.24 195.948 163.042 194.469 163.688C193.01 164.312 191.365 164.625 189.531 164.625C187.24 164.625 185.229 164.177 183.5 163.281C181.792 162.385 180.458 161.188 179.5 159.688C178.562 158.167 178.094 156.469 178.094 154.594C178.094 152.781 178.448 151.188 179.156 149.812C179.865 148.417 180.885 147.26 182.219 146.344C183.552 145.406 185.156 144.698 187.031 144.219C188.906 143.74 191 143.5 193.312 143.5H200.031ZM228.062 130.188V134.625H209.781V130.188H228.062ZM215.969 121.969H221.75V155.625C221.75 156.771 221.927 157.635 222.281 158.219C222.635 158.802 223.094 159.188 223.656 159.375C224.219 159.562 224.823 159.656 225.469 159.656C225.948 159.656 226.448 159.615 226.969 159.531C227.51 159.427 227.917 159.344 228.188 159.281L228.219 164C227.76 164.146 227.156 164.281 226.406 164.406C225.677 164.552 224.792 164.625 223.75 164.625C222.333 164.625 221.031 164.344 219.844 163.781C218.656 163.219 217.708 162.281 217 160.969C216.312 159.635 215.969 157.844 215.969 155.594V121.969ZM234.812 116H240.625V157.438L240.125 164H234.812V116ZM263.469 146.812V147.469C263.469 149.927 263.177 152.208 262.594 154.312C262.01 156.396 261.156 158.208 260.031 159.75C258.906 161.292 257.531 162.49 255.906 163.344C254.281 164.198 252.417 164.625 250.312 164.625C248.167 164.625 246.281 164.26 244.656 163.531C243.052 162.781 241.698 161.708 240.594 160.312C239.49 158.917 238.604 157.229 237.938 155.25C237.292 153.271 236.844 151.042 236.594 148.562V145.688C236.844 143.188 237.292 140.948 237.938 138.969C238.604 136.99 239.49 135.302 240.594 133.906C241.698 132.49 243.052 131.417 244.656 130.688C246.26 129.938 248.125 129.562 250.25 129.562C252.375 129.562 254.26 129.979 255.906 130.812C257.552 131.625 258.927 132.792 260.031 134.312C261.156 135.833 262.01 137.656 262.594 139.781C263.177 141.885 263.469 144.229 263.469 146.812ZM257.656 147.469V146.812C257.656 145.125 257.5 143.542 257.188 142.062C256.875 140.562 256.375 139.25 255.688 138.125C255 136.979 254.094 136.083 252.969 135.438C251.844 134.771 250.458 134.438 248.812 134.438C247.354 134.438 246.083 134.688 245 135.188C243.938 135.688 243.031 136.365 242.281 137.219C241.531 138.052 240.917 139.01 240.438 140.094C239.979 141.156 239.635 142.26 239.406 143.406V150.938C239.74 152.396 240.281 153.802 241.031 155.156C241.802 156.49 242.823 157.583 244.094 158.438C245.385 159.292 246.979 159.719 248.875 159.719C250.438 159.719 251.771 159.406 252.875 158.781C254 158.135 254.906 157.25 255.594 156.125C256.302 155 256.823 153.698 257.156 152.219C257.49 150.74 257.656 149.156 257.656 147.469ZM269.25 147.469V146.75C269.25 144.312 269.604 142.052 270.312 139.969C271.021 137.865 272.042 136.042 273.375 134.5C274.708 132.938 276.323 131.729 278.219 130.875C280.115 130 282.24 129.562 284.594 129.562C286.969 129.562 289.104 130 291 130.875C292.917 131.729 294.542 132.938 295.875 134.5C297.229 136.042 298.26 137.865 298.969 139.969C299.677 142.052 300.031 144.312 300.031 146.75V147.469C300.031 149.906 299.677 152.167 298.969 154.25C298.26 156.333 297.229 158.156 295.875 159.719C294.542 161.26 292.927 162.469 291.031 163.344C289.156 164.198 287.031 164.625 284.656 164.625C282.281 164.625 280.146 164.198 278.25 163.344C276.354 162.469 274.729 161.26 273.375 159.719C272.042 158.156 271.021 156.333 270.312 154.25C269.604 152.167 269.25 149.906 269.25 147.469ZM275.031 146.75V147.469C275.031 149.156 275.229 150.75 275.625 152.25C276.021 153.729 276.615 155.042 277.406 156.188C278.219 157.333 279.229 158.24 280.438 158.906C281.646 159.552 283.052 159.875 284.656 159.875C286.24 159.875 287.625 159.552 288.812 158.906C290.021 158.24 291.021 157.333 291.812 156.188C292.604 155.042 293.198 153.729 293.594 152.25C294.01 150.75 294.219 149.156 294.219 147.469V146.75C294.219 145.083 294.01 143.51 293.594 142.031C293.198 140.531 292.594 139.208 291.781 138.062C290.99 136.896 289.99 135.979 288.781 135.312C287.594 134.646 286.198 134.312 284.594 134.312C283.01 134.312 281.615 134.646 280.406 135.312C279.219 135.979 278.219 136.896 277.406 138.062C276.615 139.208 276.021 140.531 275.625 142.031C275.229 143.51 275.031 145.083 275.031 146.75ZM321.438 130.188V134.625H303.156V130.188H321.438ZM309.344 121.969H315.125V155.625C315.125 156.771 315.302 157.635 315.656 158.219C316.01 158.802 316.469 159.188 317.031 159.375C317.594 159.562 318.198 159.656 318.844 159.656C319.323 159.656 319.823 159.615 320.344 159.531C320.885 159.427 321.292 159.344 321.562 159.281L321.594 164C321.135 164.146 320.531 164.281 319.781 164.406C319.052 164.552 318.167 164.625 317.125 164.625C315.708 164.625 314.406 164.344 313.219 163.781C312.031 163.219 311.083 162.281 310.375 160.969C309.688 159.635 309.344 157.844 309.344 155.594V121.969ZM365.406 157.438V116H371.219V164H365.906L365.406 157.438ZM342.656 147.469V146.812C342.656 144.229 342.969 141.885 343.594 139.781C344.24 137.656 345.146 135.833 346.312 134.312C347.5 132.792 348.906 131.625 350.531 130.812C352.177 129.979 354.01 129.562 356.031 129.562C358.156 129.562 360.01 129.938 361.594 130.688C363.198 131.417 364.552 132.49 365.656 133.906C366.781 135.302 367.667 136.99 368.312 138.969C368.958 140.948 369.406 143.188 369.656 145.688V148.562C369.427 151.042 368.979 153.271 368.312 155.25C367.667 157.229 366.781 158.917 365.656 160.312C364.552 161.708 363.198 162.781 361.594 163.531C359.99 164.26 358.115 164.625 355.969 164.625C353.99 164.625 352.177 164.198 350.531 163.344C348.906 162.49 347.5 161.292 346.312 159.75C345.146 158.208 344.24 156.396 343.594 154.312C342.969 152.208 342.656 149.927 342.656 147.469ZM348.469 146.812V147.469C348.469 149.156 348.635 150.74 348.969 152.219C349.323 153.698 349.865 155 350.594 156.125C351.323 157.25 352.25 158.135 353.375 158.781C354.5 159.406 355.844 159.719 357.406 159.719C359.323 159.719 360.896 159.312 362.125 158.5C363.375 157.688 364.375 156.615 365.125 155.281C365.875 153.948 366.458 152.5 366.875 150.938V143.406C366.625 142.26 366.26 141.156 365.781 140.094C365.323 139.01 364.719 138.052 363.969 137.219C363.24 136.365 362.333 135.688 361.25 135.188C360.188 134.688 358.927 134.438 357.469 134.438C355.885 134.438 354.521 134.771 353.375 135.438C352.25 136.083 351.323 136.979 350.594 138.125C349.865 139.25 349.323 140.562 348.969 142.062C348.635 143.542 348.469 145.125 348.469 146.812ZM394.25 164.625C391.896 164.625 389.76 164.229 387.844 163.438C385.948 162.625 384.312 161.49 382.938 160.031C381.583 158.573 380.542 156.844 379.812 154.844C379.083 152.844 378.719 150.656 378.719 148.281V146.969C378.719 144.219 379.125 141.771 379.938 139.625C380.75 137.458 381.854 135.625 383.25 134.125C384.646 132.625 386.229 131.49 388 130.719C389.771 129.948 391.604 129.562 393.5 129.562C395.917 129.562 398 129.979 399.75 130.812C401.521 131.646 402.969 132.812 404.094 134.312C405.219 135.792 406.052 137.542 406.594 139.562C407.135 141.562 407.406 143.75 407.406 146.125V148.719H382.156V144H401.625V143.562C401.542 142.062 401.229 140.604 400.688 139.188C400.167 137.771 399.333 136.604 398.188 135.688C397.042 134.771 395.479 134.312 393.5 134.312C392.188 134.312 390.979 134.594 389.875 135.156C388.771 135.698 387.823 136.51 387.031 137.594C386.24 138.677 385.625 140 385.188 141.562C384.75 143.125 384.531 144.927 384.531 146.969V148.281C384.531 149.885 384.75 151.396 385.188 152.812C385.646 154.208 386.302 155.438 387.156 156.5C388.031 157.562 389.083 158.396 390.312 159C391.562 159.604 392.979 159.906 394.562 159.906C396.604 159.906 398.333 159.49 399.75 158.656C401.167 157.823 402.406 156.708 403.469 155.312L406.969 158.094C406.24 159.198 405.312 160.25 404.188 161.25C403.062 162.25 401.677 163.062 400.031 163.688C398.406 164.312 396.479 164.625 394.25 164.625ZM458.5 159.094V164H435.75V159.094H458.5ZM436.938 118.5V164H430.906V118.5H436.938ZM498.375 139.812V142.688C498.375 146.104 497.948 149.167 497.094 151.875C496.24 154.583 495.01 156.885 493.406 158.781C491.802 160.677 489.875 162.125 487.625 163.125C485.396 164.125 482.896 164.625 480.125 164.625C477.438 164.625 474.969 164.125 472.719 163.125C470.49 162.125 468.552 160.677 466.906 158.781C465.281 156.885 464.021 154.583 463.125 151.875C462.229 149.167 461.781 146.104 461.781 142.688V139.812C461.781 136.396 462.219 133.344 463.094 130.656C463.99 127.948 465.25 125.646 466.875 123.75C468.5 121.833 470.427 120.375 472.656 119.375C474.906 118.375 477.375 117.875 480.062 117.875C482.833 117.875 485.333 118.375 487.562 119.375C489.812 120.375 491.74 121.833 493.344 123.75C494.969 125.646 496.208 127.948 497.062 130.656C497.938 133.344 498.375 136.396 498.375 139.812ZM492.406 142.688V139.75C492.406 137.042 492.125 134.646 491.562 132.562C491.021 130.479 490.219 128.729 489.156 127.312C488.094 125.896 486.792 124.823 485.25 124.094C483.729 123.365 482 123 480.062 123C478.188 123 476.49 123.365 474.969 124.094C473.469 124.823 472.177 125.896 471.094 127.312C470.031 128.729 469.208 130.479 468.625 132.562C468.042 134.646 467.75 137.042 467.75 139.75V142.688C467.75 145.417 468.042 147.833 468.625 149.938C469.208 152.021 470.042 153.781 471.125 155.219C472.229 156.635 473.531 157.708 475.031 158.438C476.552 159.167 478.25 159.531 480.125 159.531C482.083 159.531 483.823 159.167 485.344 158.438C486.865 157.708 488.146 156.635 489.188 155.219C490.25 153.781 491.052 152.021 491.594 149.938C492.135 147.833 492.406 145.417 492.406 142.688ZM523.562 122.531L508.5 164H502.344L519.688 118.5H523.656L523.562 122.531ZM536.188 164L521.094 122.531L521 118.5H524.969L542.375 164H536.188ZM535.406 147.156V152.094H509.844V147.156H535.406ZM575.562 149.531H581.562C581.25 152.406 580.427 154.979 579.094 157.25C577.76 159.521 575.875 161.323 573.438 162.656C571 163.969 567.958 164.625 564.312 164.625C561.646 164.625 559.219 164.125 557.031 163.125C554.865 162.125 553 160.708 551.438 158.875C549.875 157.021 548.667 154.802 547.812 152.219C546.979 149.615 546.562 146.719 546.562 143.531V139C546.562 135.812 546.979 132.927 547.812 130.344C548.667 127.74 549.885 125.51 551.469 123.656C553.073 121.802 555 120.375 557.25 119.375C559.5 118.375 562.031 117.875 564.844 117.875C568.281 117.875 571.188 118.521 573.562 119.812C575.938 121.104 577.781 122.896 579.094 125.188C580.427 127.458 581.25 130.094 581.562 133.094H575.562C575.271 130.969 574.729 129.146 573.938 127.625C573.146 126.083 572.021 124.896 570.562 124.062C569.104 123.229 567.198 122.812 564.844 122.812C562.823 122.812 561.042 123.198 559.5 123.969C557.979 124.74 556.698 125.833 555.656 127.25C554.635 128.667 553.865 130.365 553.344 132.344C552.823 134.323 552.562 136.521 552.562 138.938V143.531C552.562 145.76 552.792 147.854 553.25 149.812C553.729 151.771 554.448 153.49 555.406 154.969C556.365 156.448 557.583 157.615 559.062 158.469C560.542 159.302 562.292 159.719 564.312 159.719C566.875 159.719 568.917 159.312 570.438 158.5C571.958 157.688 573.104 156.521 573.875 155C574.667 153.479 575.229 151.656 575.562 149.531Z" fill="#4671C6"/>
<path d="M375.362 77.7981V54.6546C375.362 48.0179 369.982 42.6379 363.345 42.6379H330.855C324.218 42.6379 318.839 48.0179 318.839 54.6546V77.7981C318.839 84.4349 324.219 89.8149 330.855 89.8149H340.712H360.674H363.345C369.982 89.8152 375.362 84.4349 375.362 77.7981Z" fill="#4671C6"/>
<path d="M363.345 90.4531H330.855C323.878 90.4531 318.201 84.7761 318.201 77.7985V54.6546C318.201 47.6769 323.878 42 330.855 42H363.345C370.323 42 376 47.6769 376 54.6546V77.7981C376 84.7761 370.323 90.4531 363.345 90.4531ZM330.855 43.2759C324.581 43.2759 319.476 48.3803 319.476 54.6546V77.7981C319.476 84.0725 324.581 89.1769 330.855 89.1769H363.345C369.62 89.1769 374.724 84.0725 374.724 77.7981V54.6546C374.724 48.3803 369.62 43.2759 363.345 43.2759H330.855V43.2759Z" fill="#3762CC"/>
<path d="M347.145 52.1622H314.655C308.018 52.1622 302.638 57.5425 302.638 64.1793V87.3228C302.638 93.9595 308.018 99.3395 314.655 99.3395H324.512L323.791 110.545C323.72 111.648 324.944 112.355 325.864 111.742L344.474 99.3395H347.145C353.782 99.3395 359.162 93.9595 359.162 87.3228V64.1793C359.162 57.5425 353.782 52.1622 347.145 52.1622Z" fill="#A4C9FF"/>
<path d="M342.472 85.764H319.551C316.785 85.764 314.544 83.5223 314.544 80.7569V65.5135C314.544 62.7481 316.785 60.5064 319.551 60.5064H342.472C345.237 60.5064 347.479 62.7481 347.479 65.5135V80.7572C347.478 83.5223 345.237 85.764 342.472 85.764Z" fill="#E0EBFC"/>
<path d="M319.55 79.4217V66.8484C319.55 66.1109 320.148 65.5132 320.886 65.5132H341.136C341.874 65.5132 342.472 66.1109 342.472 66.8484V79.4217C342.472 80.1591 341.874 80.7569 341.136 80.7569H320.886C320.148 80.7569 319.55 80.1591 319.55 79.4217Z" fill="#6BDDDD"/>
<path d="M337.854 60.5064H324.168C324.168 57.5569 326.559 55.166 329.509 55.166H332.514C335.463 55.166 337.854 57.5569 337.854 60.5064Z" fill="#F9A7A7"/>
<path d="M347.478 78.9767V67.2936C349.998 67.2936 352.04 69.336 352.04 71.8555V74.4145C352.041 76.9344 349.998 78.9767 347.478 78.9767Z" fill="#F9CFCF"/>
<path d="M314.544 78.9767C312.024 78.9767 309.982 76.9344 309.982 74.4149V71.8558C309.982 69.3363 312.024 67.294 314.544 67.294V78.9767Z" fill="#F9CFCF"/>
<path d="M338.577 94.9996H323.668C322.5 94.9996 321.553 94.0529 321.553 92.8852C321.553 88.952 324.742 85.764 328.674 85.764H333.57C337.503 85.764 340.691 88.9524 340.691 92.8852C340.691 94.0529 339.745 94.9996 338.577 94.9996Z" fill="#E0EBFC"/>
<path d="M325.448 74.4448C324.342 74.4448 323.445 73.5482 323.445 72.4421V70.0505C323.445 68.9443 324.342 68.0477 325.448 68.0477C326.554 68.0477 327.451 68.9443 327.451 70.0505V72.4421C327.451 73.5482 326.554 74.4448 325.448 74.4448Z" fill="#4671C6"/>
<path d="M336.797 74.4448C335.691 74.4448 334.794 73.5482 334.794 72.4421V70.0505C334.794 68.9443 335.691 68.0477 336.797 68.0477C337.903 68.0477 338.8 68.9443 338.8 70.0505V72.4421C338.8 73.5482 337.903 74.4448 336.797 74.4448Z" fill="#4671C6"/>
<path d="M331.123 78.9767C329.329 78.9767 327.871 77.5181 327.871 75.7248C327.871 75.3727 328.156 75.0869 328.509 75.0869C328.861 75.0869 329.147 75.3727 329.147 75.7248C329.147 76.8144 330.033 77.7008 331.123 77.7008C332.212 77.7008 333.098 76.8144 333.098 75.7248C333.098 75.3727 333.384 75.0869 333.736 75.0869C334.088 75.0869 334.374 75.3727 334.374 75.7248C334.374 77.5181 332.915 78.9767 331.123 78.9767Z" fill="#4671C6"/>
<path d="M325.124 112.606C324.785 112.606 324.446 112.518 324.137 112.34C323.482 111.962 323.106 111.259 323.154 110.505L323.832 99.9777H314.655C307.677 99.9774 302 94.3008 302 87.3228V64.1793C302 57.2016 307.677 51.5246 314.655 51.5246H347.145C354.122 51.5246 359.799 57.2016 359.799 64.1793V87.3228C359.799 94.3005 354.122 99.9774 347.145 99.9774H344.667L326.217 112.273C325.885 112.495 325.505 112.606 325.124 112.606ZM314.655 52.8005C308.381 52.8005 303.276 57.9049 303.276 64.1793V87.3228C303.276 93.5971 308.381 98.7015 314.655 98.7015H324.512C324.688 98.7015 324.857 98.7746 324.977 98.9031C325.098 99.0317 325.16 99.2046 325.149 99.3806L324.427 110.586C324.41 110.857 324.54 111.099 324.775 111.235C325.01 111.371 325.285 111.361 325.51 111.211L344.12 98.809C344.225 98.7392 344.348 98.7019 344.474 98.7019H347.145C353.419 98.7019 358.524 93.5975 358.524 87.3231V64.1793C358.524 57.9049 353.419 52.8005 347.145 52.8005H314.655Z" fill="#3762CC"/>
<path d="M342.472 86.4019H319.551C316.438 86.4019 313.906 83.8696 313.906 80.7569V65.5135C313.906 62.4007 316.438 59.8684 319.551 59.8684H342.472C345.584 59.8684 348.116 62.4007 348.116 65.5135V80.7572C348.116 83.8696 345.584 86.4019 342.472 86.4019ZM319.55 61.1443C317.141 61.1443 315.181 63.1043 315.181 65.5135V80.7572C315.181 83.1663 317.141 85.1264 319.55 85.1264H342.471C344.88 85.1264 346.84 83.1663 346.84 80.7572V65.5135C346.84 63.1043 344.88 61.1443 342.471 61.1443H319.55Z" fill="#3762CC"/>
<path d="M341.136 81.3951H320.886C319.798 81.3951 318.913 80.51 318.913 79.422V66.8487C318.913 65.7607 319.797 64.8755 320.886 64.8755H341.136C342.224 64.8755 343.11 65.7607 343.11 66.8487V79.422C343.11 80.51 342.224 81.3951 341.136 81.3951ZM320.886 66.1514C320.501 66.1514 320.188 66.464 320.188 66.8487V79.422C320.188 79.8066 320.501 80.1192 320.886 80.1192H341.136C341.521 80.1192 341.834 79.8066 341.834 79.422V66.8487C341.834 66.464 341.521 66.1514 341.136 66.1514H320.886Z" fill="#3762CC"/>
<path d="M337.854 61.1443H324.168C323.816 61.1443 323.53 60.8585 323.53 60.5064C323.53 57.2099 326.212 54.528 329.508 54.528H332.514C335.81 54.528 338.492 57.2099 338.492 60.5064C338.492 60.8585 338.206 61.1443 337.854 61.1443ZM324.849 59.8685H337.173C336.861 57.576 334.89 55.8039 332.514 55.8039H329.509C327.132 55.8039 325.161 57.576 324.849 59.8685Z" fill="#3762CC"/>
<path d="M347.478 79.6146C347.126 79.6146 346.84 79.3288 346.84 78.9767V67.2936C346.84 66.9415 347.126 66.6557 347.478 66.6557C350.346 66.6557 352.679 68.9883 352.679 71.8555V74.4145C352.679 77.282 350.346 79.6146 347.478 79.6146ZM348.116 67.9836V78.2871C349.978 77.9815 351.403 76.3615 351.403 74.4149V71.8558C351.403 69.9088 349.978 68.2888 348.116 67.9836Z" fill="#3762CC"/>
<path d="M314.543 79.6146C311.676 79.6146 309.344 77.282 309.344 74.4145V71.8555C309.344 68.9883 311.676 66.6557 314.543 66.6557C314.895 66.6557 315.181 66.9415 315.181 67.2936V78.9767C315.181 79.3292 314.896 79.6146 314.543 79.6146ZM313.905 67.9836C312.044 68.2891 310.619 69.9091 310.619 71.8558V74.4149C310.619 76.3615 312.044 77.9815 313.905 78.2871V67.9836Z" fill="#3762CC"/>
<path d="M338.577 95.6375H323.668C322.15 95.6375 320.916 94.4028 320.916 92.8855C320.916 88.6069 324.396 85.126 328.675 85.126H333.57C337.849 85.126 341.329 88.6069 341.329 92.8855C341.329 94.4028 340.095 95.6375 338.577 95.6375ZM328.675 86.4019C325.1 86.4019 322.191 89.3105 322.191 92.8855C322.191 93.6995 322.854 94.3617 323.668 94.3617H338.577C339.391 94.3617 340.054 93.6995 340.054 92.8855C340.054 89.3105 337.145 86.4019 333.57 86.4019H328.675V86.4019Z" fill="#3762CC"/>
</svg>
