<svg width="58" height="43" viewBox="0 0 58 43" fill="none" xmlns="http://www.w3.org/2000/svg">
<path d="M43.8724 41.3665H13.5178C9.85544 41.3665 6.88672 38.3978 6.88672 34.7354V14.5483C6.88672 10.886 9.85544 7.91724 13.5178 7.91724H43.8724C47.5348 7.91724 50.5035 10.886 50.5035 14.5483V34.7359C50.5031 38.3978 47.5343 41.3665 43.8724 41.3665Z" fill="#E0EBFC"/>
<path d="M13.5173 32.9673V16.3162C13.5173 15.3396 14.3089 14.548 15.2856 14.548H42.1042C43.0808 14.548 43.8724 15.3396 43.8724 16.3162V32.9673C43.8724 33.944 43.0808 34.7355 42.1042 34.7355H15.2856C14.3089 34.7355 13.5173 33.944 13.5173 32.9673Z" fill="#6BDDDD"/>
<path d="M37.7571 7.91732H19.6326C19.6326 4.01126 22.799 0.844849 26.705 0.844849H30.685C34.5907 0.844849 37.7571 4.01126 37.7571 7.91732Z" fill="#F9A7A7"/>
<path d="M50.5029 32.3779V16.9058C53.8396 16.9058 56.5443 19.6105 56.5443 22.9471V26.3362C56.5447 29.6732 53.8396 32.3779 50.5029 32.3779Z" fill="#F9CFCF"/>
<path d="M6.88658 32.378C3.54993 32.378 0.845215 29.6733 0.845215 26.3366V22.9476C0.845215 19.611 3.54993 16.9062 6.88658 16.9062V32.378Z" fill="#F9CFCF"/>
<path d="M21.3271 26.3764C19.8622 26.3764 18.6748 25.1889 18.6748 23.724V20.5568C18.6748 19.0918 19.8622 17.9044 21.3271 17.9044C22.7921 17.9044 23.9795 19.0918 23.9795 20.5568V23.724C23.9795 25.1889 22.7921 26.3764 21.3271 26.3764Z" fill="#4671C6"/>
<path d="M36.3572 26.3764C34.8922 26.3764 33.7048 25.1889 33.7048 23.724V20.5568C33.7048 19.0918 34.8922 17.9044 36.3572 17.9044C37.8221 17.9044 39.0095 19.0918 39.0095 20.5568V23.724C39.0095 25.1889 37.8221 26.3764 36.3572 26.3764Z" fill="#4671C6"/>
<path d="M28.8424 32.378C26.4676 32.378 24.5359 30.4463 24.5359 28.0715C24.5359 27.6052 24.9144 27.2267 25.3807 27.2267C25.8471 27.2267 26.2255 27.6052 26.2255 28.0715C26.2255 29.5145 27.3994 30.6884 28.8424 30.6884C30.2854 30.6884 31.4588 29.5145 31.4588 28.0715C31.4588 27.6052 31.8373 27.2267 32.3037 27.2267C32.77 27.2267 33.1485 27.6052 33.1485 28.0715C33.1485 30.4463 31.2168 32.378 28.8424 32.378Z" fill="#4671C6"/>
<path d="M43.8723 42.2114H13.5176C9.39529 42.2114 6.04175 38.8579 6.04175 34.7355V14.5484C6.04175 10.4261 9.39529 7.07251 13.5176 7.07251H43.8723C47.9942 7.07251 51.3477 10.4261 51.3477 14.5484V34.736C51.3477 38.8579 47.9942 42.2114 43.8723 42.2114ZM13.5172 8.76216C10.3263 8.76216 7.73098 11.3579 7.73098 14.5484V34.736C7.73098 37.9265 10.3267 40.5222 13.5172 40.5222H43.8719C47.0624 40.5222 49.6577 37.9265 49.6577 34.736V14.5484C49.6577 11.3579 47.0619 8.76216 43.8719 8.76216H13.5172Z" fill="#3762CC"/>
<path d="M42.104 35.5807H15.2854C13.8446 35.5807 12.6724 34.4085 12.6724 32.9677V16.3165C12.6724 14.8757 13.8441 13.7035 15.2854 13.7035H42.104C43.5449 13.7035 44.7171 14.8757 44.7171 16.3165V32.9677C44.7171 34.4085 43.5449 35.5807 42.104 35.5807ZM15.2854 15.3931C14.7764 15.3931 14.362 15.8071 14.362 16.3165V32.9677C14.362 33.4771 14.776 33.8911 15.2854 33.8911H42.104C42.6131 33.8911 43.0274 33.4771 43.0274 32.9677V16.3165C43.0274 15.8071 42.6135 15.3931 42.104 15.3931H15.2854Z" fill="#3762CC"/>
<path d="M37.7572 8.76213H19.6327C19.1663 8.76213 18.7878 8.38365 18.7878 7.9173C18.7878 3.55165 22.3391 0 26.7047 0H30.6847C35.0504 0 38.602 3.55165 38.602 7.9173C38.602 8.38365 38.2239 8.76213 37.7572 8.76213ZM20.5345 7.07247H36.8558C36.4422 4.03658 33.8325 1.68966 30.6851 1.68966H26.7051C23.5577 1.68966 20.9481 4.03658 20.5345 7.07247Z" fill="#3762CC"/>
<path d="M50.503 33.2229C50.0367 33.2229 49.6582 32.8444 49.6582 32.378V16.9059C49.6582 16.4395 50.0367 16.061 50.503 16.061C54.3001 16.061 57.3896 19.1501 57.3896 22.9472V26.3363C57.3896 30.1338 54.3001 33.2229 50.503 33.2229ZM51.3479 17.8195V31.4648C53.8131 31.0601 55.7 28.9147 55.7 26.3367V22.9476C55.7 20.3692 53.8131 18.2238 51.3479 17.8195Z" fill="#3762CC"/>
<path d="M6.88619 33.2229C3.08911 33.2229 0 30.1338 0 26.3363V22.9472C0 19.1501 3.08911 16.061 6.88619 16.061C7.35254 16.061 7.73102 16.4395 7.73102 16.9059V32.378C7.73102 32.8448 7.35296 33.2229 6.88619 33.2229ZM6.04136 17.8195C3.57616 18.2242 1.68966 20.3697 1.68966 22.9476V26.3367C1.68966 28.9147 3.57616 31.0601 6.04136 31.4648V17.8195Z" fill="#3762CC"/>
</svg>
